<svg width="144" height="42" viewBox="0 0 144 42" fill="none" xmlns="http://www.w3.org/2000/svg">
<path d="M4.56738 7.232C3.25538 7.232 2.32738 7.168 1.78338 7.04C1.23938 6.88 0.903375 6.672 0.775375 6.416C0.679375 6.16 0.631375 5.904 0.631375 5.648C0.631375 5.296 0.807375 4.976 1.15938 4.688C1.54338 4.368 2.31138 4.112 3.46338 3.92C4.93538 3.6 6.66338 3.28 8.64738 2.96C10.6634 2.608 12.8074 2.288 15.0794 2C17.3514 1.68 19.6234 1.392 21.8954 1.136C24.1994 0.879999 26.3914 0.687999 28.4714 0.559999C30.5834 0.399999 32.4554 0.319999 34.0874 0.319999C36.2634 0.319999 37.7354 0.511998 38.5034 0.895997C39.3034 1.28 39.7034 1.696 39.7034 2.144C39.7034 2.56 39.4794 2.944 39.0314 3.296C38.6154 3.648 37.8954 3.824 36.8714 3.824C36.4554 3.824 35.4954 3.92 33.9914 4.112C32.4874 4.272 30.6474 4.496 28.4714 4.784C26.3274 5.04 24.0554 5.328 21.6554 5.648C21.4954 6.736 21.2554 8.176 20.9354 9.968C20.6154 11.728 20.2474 13.664 19.8314 15.776C19.4474 17.888 19.0474 20.016 18.6314 22.16C18.2474 24.272 17.8794 26.24 17.5274 28.064C17.2074 29.888 16.9354 31.392 16.7114 32.576C16.4874 33.76 16.3594 34.464 16.3274 34.688C16.1994 35.68 15.9114 36.432 15.4634 36.944C15.0474 37.424 14.5834 37.664 14.0714 37.664C13.4634 37.664 12.9514 37.408 12.5354 36.896C12.1514 36.352 11.9594 35.408 11.9594 34.064C11.9594 33.616 12.0554 32.752 12.2474 31.472C12.4394 30.16 12.6954 28.608 13.0154 26.816C13.3354 25.024 13.6874 23.12 14.0714 21.104C14.4554 19.088 14.8394 17.12 15.2234 15.2C15.6074 13.248 15.9594 11.488 16.2794 9.92C16.5994 8.32 16.8394 7.072 16.9994 6.176C14.4714 6.464 12.0874 6.72 9.84738 6.944C7.63938 7.136 5.87938 7.232 4.56738 7.232ZM40.0855 38.48C38.1975 38.48 36.7095 37.76 35.6215 36.32C34.5335 34.88 33.9895 33.008 33.9895 30.704C33.9895 29.872 34.1015 28.992 34.3255 28.064C34.5815 27.104 34.9015 26.24 35.2855 25.472C35.0615 25.248 34.8855 24.944 34.7575 24.56C34.6295 24.144 34.5655 23.632 34.5655 23.024C34.5655 21.136 34.8855 19.408 35.5255 17.84C36.1655 16.272 37.0135 14.912 38.0695 13.76C39.1255 12.576 40.2935 11.664 41.5735 11.024C42.8855 10.384 44.2135 10.064 45.5575 10.064C47.7655 10.064 49.5575 10.864 50.9335 12.464C52.3095 14.032 52.9975 16.432 52.9975 19.664C52.9975 21.36 52.7415 23.088 52.2295 24.848C51.7495 26.608 51.0775 28.304 50.2135 29.936C49.3815 31.568 48.4055 33.024 47.2855 34.304C46.1975 35.584 45.0295 36.608 43.7815 37.376C42.5655 38.112 41.3335 38.48 40.0855 38.48ZM38.4535 23.84C38.6455 24.096 38.7415 24.432 38.7415 24.848C38.7415 25.328 38.6455 25.808 38.4535 26.288C38.2935 26.768 38.1175 27.424 37.9255 28.256C37.7335 29.088 37.6375 30.272 37.6375 31.808C37.6375 33.344 38.2455 34.112 39.4615 34.112C40.8055 34.112 42.0535 33.584 43.2055 32.528C44.3575 31.44 45.3815 30.048 46.2775 28.352C47.1735 26.656 47.8615 24.848 48.3415 22.928C48.8535 20.976 49.1095 19.136 49.1095 17.408C49.1095 16.288 48.9015 15.504 48.4855 15.056C48.0695 14.576 47.3175 14.336 46.2295 14.336C45.1095 14.336 43.9415 14.72 42.7255 15.488C41.5415 16.224 40.5495 17.232 39.7495 18.512C38.9495 19.792 38.5495 21.232 38.5495 22.832C38.5495 23.184 38.5175 23.52 38.4535 23.84ZM61.5681 41.264C61.0241 41.264 60.5601 40.96 60.1761 40.352C59.7921 39.776 59.6001 39.104 59.6001 38.336C59.6001 38.016 59.6641 37.728 59.7921 37.472C59.9521 37.216 60.1921 37.024 60.5121 36.896C60.8641 36.736 61.2161 36.592 61.5681 36.464C61.9521 36.304 62.3361 36.144 62.7201 35.984C62.6241 35.728 62.5441 35.424 62.4801 35.072C62.4161 34.72 62.3841 34.304 62.3841 33.824C62.3841 33.472 62.4481 32.8 62.5761 31.808C62.7361 30.784 62.9441 29.568 63.2001 28.16C63.4561 26.752 63.7281 25.264 64.0161 23.696C64.3361 22.096 64.6401 20.544 64.9281 19.04C65.2481 17.504 65.5361 16.128 65.7921 14.912C66.3681 12.288 67.0721 9.936 67.9041 7.856C68.7681 5.776 69.9201 4.144 71.3601 2.96C72.8321 1.744 74.7681 1.136 77.1681 1.136C78.9921 1.136 80.7841 1.536 82.5441 2.336C84.3361 3.136 85.9521 4.272 87.3921 5.744C88.8641 7.184 90.0321 8.88 90.8961 10.832C91.7601 12.784 92.1921 14.912 92.1921 17.216C92.1921 19.2 91.7281 21.088 90.8001 22.88C89.8721 24.64 88.6241 26.304 87.0561 27.872C85.4881 29.44 83.6961 30.896 81.6801 32.24C79.6961 33.584 77.6161 34.816 75.4401 35.936C73.2961 37.024 71.1841 37.984 69.1041 38.816C67.0241 39.68 65.1041 40.4 63.3441 40.976C63.1201 41.04 62.8481 41.104 62.5281 41.168C62.2081 41.232 61.8881 41.264 61.5681 41.264ZM66.1281 34.64C68.9121 33.488 71.6161 32.304 74.2401 31.088C76.8961 29.872 79.2801 28.528 81.3921 27.056C83.5041 25.552 85.1841 23.872 86.4321 22.016C87.6801 20.16 88.3041 18.032 88.3041 15.632C88.3041 14.384 88.0161 13.168 87.4401 11.984C86.8641 10.8 86.0641 9.744 85.0401 8.816C84.0481 7.856 82.9121 7.104 81.6321 6.56C80.3841 5.984 79.0721 5.696 77.6961 5.696C76.4481 5.696 75.3281 6.016 74.3361 6.656C73.3761 7.264 72.5441 8.352 71.8401 9.92C71.1361 11.488 70.5281 13.664 70.0161 16.448C69.6321 18.176 69.2321 20.048 68.8161 22.064C68.4001 24.048 67.9841 25.952 67.5681 27.776C67.1841 29.568 66.8641 31.088 66.6081 32.336C66.3521 33.552 66.2081 34.256 66.1761 34.448C66.1761 34.512 66.1601 34.576 66.1281 34.64ZM106.742 38.48C104.854 38.48 103.366 37.76 102.278 36.32C101.19 34.88 100.646 33.008 100.646 30.704C100.646 29.872 100.758 28.992 100.982 28.064C101.238 27.104 101.558 26.24 101.942 25.472C101.718 25.248 101.542 24.944 101.414 24.56C101.286 24.144 101.222 23.632 101.222 23.024C101.222 21.136 101.542 19.408 102.182 17.84C102.822 16.272 103.67 14.912 104.726 13.76C105.782 12.576 106.95 11.664 108.23 11.024C109.542 10.384 110.87 10.064 112.214 10.064C114.422 10.064 116.214 10.864 117.59 12.464C118.966 14.032 119.654 16.432 119.654 19.664C119.654 21.36 119.398 23.088 118.886 24.848C118.406 26.608 117.734 28.304 116.87 29.936C116.038 31.568 115.062 33.024 113.942 34.304C112.854 35.584 111.686 36.608 110.438 37.376C109.222 38.112 107.99 38.48 106.742 38.48ZM105.11 23.84C105.302 24.096 105.398 24.432 105.398 24.848C105.398 25.328 105.302 25.808 105.11 26.288C104.95 26.768 104.774 27.424 104.582 28.256C104.39 29.088 104.294 30.272 104.294 31.808C104.294 33.344 104.902 34.112 106.118 34.112C107.462 34.112 108.71 33.584 109.862 32.528C111.014 31.44 112.038 30.048 112.934 28.352C113.83 26.656 114.518 24.848 114.998 22.928C115.51 20.976 115.766 19.136 115.766 17.408C115.766 16.288 115.558 15.504 115.142 15.056C114.726 14.576 113.974 14.336 112.886 14.336C111.766 14.336 110.598 14.72 109.382 15.488C108.198 16.224 107.206 17.232 106.406 18.512C105.606 19.792 105.206 21.232 105.206 22.832C105.206 23.184 105.174 23.52 105.11 23.84ZM132.61 39.056C131.906 39.056 131.362 38.848 130.978 38.432C130.626 38.048 130.45 37.6 130.45 37.088C130.45 36.64 130.642 36.224 131.026 35.84C131.442 35.424 132.002 35.056 132.706 34.736C133.986 34.064 135.186 33.392 136.306 32.72C137.458 32.048 138.386 31.328 139.09 30.56C139.794 29.792 140.146 28.976 140.146 28.112C140.146 27.376 139.906 26.816 139.426 26.432C138.946 26.016 138.29 25.808 137.458 25.808C136.978 25.808 136.306 25.904 135.442 26.096C134.578 26.256 133.634 26.448 132.61 26.672C131.618 26.864 130.642 27.056 129.682 27.248C128.722 27.408 127.906 27.488 127.234 27.488C126.018 27.488 125.106 27.2 124.498 26.624C123.89 26.016 123.586 25.2 123.586 24.176C123.586 23.664 123.89 22.896 124.498 21.872C125.106 20.848 125.906 19.712 126.898 18.464C127.922 17.184 129.042 15.904 130.258 14.624C131.474 13.344 132.706 12.16 133.954 11.072C135.234 9.984 136.418 9.104 137.506 8.432C138.626 7.76 139.554 7.424 140.29 7.424C141.026 7.424 141.586 7.664 141.97 8.144C142.354 8.624 142.546 9.232 142.546 9.968C142.546 10.544 142.45 11.04 142.258 11.456C142.066 11.84 141.666 12.144 141.058 12.368C140.482 12.592 139.586 12.72 138.37 12.752C137.122 13.744 135.794 14.88 134.386 16.16C133.01 17.408 131.746 18.704 130.594 20.048C129.474 21.36 128.658 22.624 128.146 23.84C129.202 23.488 130.482 23.184 131.986 22.928C133.522 22.64 135.074 22.496 136.642 22.496C139.106 22.496 140.93 23.056 142.114 24.176C143.33 25.264 143.938 26.704 143.938 28.496C143.938 29.648 143.57 30.848 142.834 32.096C142.13 33.312 141.202 34.448 140.05 35.504C138.898 36.56 137.666 37.408 136.354 38.048C135.042 38.72 133.794 39.056 132.61 39.056Z" fill="black"/>
</svg>
